<svg width="45" height="45" viewBox="0 0 45 45" fill="none" xmlns="http://www.w3.org/2000/svg">
<path d="M2.5 42.4517L1.02913 42.1575L0.613367 44.2363L2.71206 43.9366L2.5 42.4517ZM4.5 32.4517L3.43934 31.391C3.22994 31.6004 3.08721 31.8671 3.02913 32.1575L4.5 32.4517ZM28 8.95168L26.9393 7.89102L26.9393 7.89102L28 8.95168ZM33.5 3.45168L34.5607 2.39102L33.5 1.33036L32.4393 2.39102L33.5 3.45168ZM40.5 10.4522L39.4393 11.5128L39.4393 11.5129L40.5 10.4522ZM42 11.9522L43.0607 13.0129L44.1213 11.9522L43.0607 10.8916L42 11.9522ZM13 40.9522L13.2121 42.4372C13.5334 42.3913 13.8311 42.2424 14.0607 42.0129L13 40.9522ZM11.5 33.4517L12.9709 33.1575C12.8462 32.5339 12.3417 32.0567 11.7121 31.9668L11.5 33.4517ZM42 2.95168L43.0479 1.87843L42 2.95168ZM2.5 42.4517L3.97087 42.7459L5.97087 32.7459L4.5 32.4517L3.02913 32.1575L1.02913 42.1575L2.5 42.4517ZM4.5 32.4517L5.56066 33.5123L29.0607 10.0123L28 8.95168L26.9393 7.89102L3.43934 31.391L4.5 32.4517ZM28 8.95168L29.0607 10.0123L34.5607 4.51234L33.5 3.45168L32.4393 2.39102L26.9393 7.89102L28 8.95168ZM33.5 3.45168L32.4393 4.51234L33.9393 6.01234L35 4.95168L36.0607 3.89102L34.5607 2.39102L33.5 3.45168ZM35 4.95168L33.9393 6.01229L39.4393 11.5128L40.5 10.4522L41.5607 9.39162L36.0607 3.89107L35 4.95168ZM40.5 10.4522L39.4393 11.5129L40.9393 13.0129L42 11.9522L43.0607 10.8916L41.5607 9.39156L40.5 10.4522ZM42 11.9522L40.9393 10.8916L35.4393 16.3916L36.5 17.4522L37.5607 18.5129L43.0607 13.0129L42 11.9522ZM36.5 17.4522L35.4393 16.3916L11.9393 39.8916L13 40.9522L14.0607 42.0129L37.5607 18.5129L36.5 17.4522ZM13 40.9522L12.7879 39.4673L2.28794 40.9668L2.5 42.4517L2.71206 43.9366L13.2121 42.4372L13 40.9522ZM4.5 32.4517L4.28787 33.9366L11.2879 34.9366L11.5 33.4517L11.7121 31.9668L4.71213 30.9668L4.5 32.4517ZM11.5 33.4517L10.0291 33.7458L11.5291 41.2464L13 40.9522L14.4709 40.6581L12.9709 33.1575L11.5 33.4517ZM28 8.95168L26.9393 10.0123L35.4393 18.5129L36.5 17.4522L37.5607 16.3916L29.0607 7.89106L28 8.95168ZM40.5 10.4522L41.6526 11.4122C42.9365 9.87067 44.0005 8.27596 44.4015 6.68437C44.6089 5.86119 44.6485 5.00308 44.421 4.14945C44.1923 3.29156 43.7193 2.53395 43.0479 1.87843L42 2.95168L40.9521 4.02493C41.2933 4.35811 41.4516 4.65722 41.5222 4.92206C41.5939 5.19116 41.6006 5.5218 41.4924 5.95139C41.2621 6.86531 40.5635 8.03217 39.3474 9.49225L40.5 10.4522ZM42 2.95168L43.0479 1.87843C41.3761 0.246115 39.2059 0.659028 37.7208 1.29594C36.1827 1.95553 34.7833 3.07399 33.9568 3.8738L35 4.95168L36.0432 6.02956C36.7167 5.37769 37.8166 4.51909 38.9032 4.05309C40.0427 3.56439 40.6225 3.70314 40.9521 4.02493L42 2.95168Z" fill="black"/>
</svg>
