<svg width="60" height="59" viewBox="0 0 60 59" fill="none" xmlns="http://www.w3.org/2000/svg">
<path d="M58.8 42.1003L55.2 40.4003C54.7 40.1003 54 40.1003 53.5 40.4003L32 50.6003C30.8 51.2003 29.3 51.2003 28.1 50.6003L6.5 40.4003C6 40.1003 5.3 40.1003 4.8 40.4003L1.2 42.1003C-0.4 42.9003 -0.4 45.0003 1.2 45.8003L28 58.5003C29.2 59.1003 30.7 59.1003 31.9 58.5003L58.7 45.8003C60.4 45.0003 60.4 42.8003 58.8 42.1003Z" fill="white"/>
<path d="M58.8 28.1003L55.1 26.4003C54.6 26.1003 53.9 26.1003 53.4 26.4003L32 36.6003C30.8 37.2003 29.3 37.2003 28.1 36.6003L6.6 26.4003C6.1 26.1003 5.4 26.1003 4.9 26.4003L1.2 28.1003C-0.4 28.9003 -0.4 31.0003 1.2 31.8003L28 44.6003C29.2 45.2003 30.7 45.2003 31.9 44.6003L58.7 31.9003C60.4 31.1003 60.4 28.9003 58.8 28.1003Z" fill="white"/>
<path d="M1.2 17.8002L28 30.5002C29.2 31.1002 30.7 31.1002 31.9 30.5002L58.7 17.8002C60.3 17.0002 60.3 14.9002 58.7 14.1002L31.9 1.4002C30.7 0.800195 29.2 0.800195 28 1.4002L1.2 14.2002C-0.4 14.9002 -0.4 17.1002 1.2 17.8002Z" fill="white"/>
</svg>
