<svg width="61" height="78" viewBox="0 0 61 78" fill="none" xmlns="http://www.w3.org/2000/svg">
<path fill-rule="evenodd" clip-rule="evenodd" d="M32.3096 0.00390625C38.7939 0.168105 44 5.47608 44 12V25H52L52.4629 25.0117C57.2183 25.2526 61 29.1847 61 34V69L60.9883 69.4629C60.7551 74.065 57.065 77.7551 52.4629 77.9883L52 78H9L8.53711 77.9883C3.93498 77.7551 0.244876 74.065 0.0117188 69.4629L0 69V34C0 29.1847 3.78166 25.2526 8.53711 25.0117L9 25H16V12C16 5.47608 21.2061 0.168106 27.6904 0.00390625L28 0H32L32.3096 0.00390625ZM9 28C5.68629 28 3 30.6863 3 34V69C3 72.3137 5.68629 75 9 75H52C55.3137 75 58 72.3137 58 69V34C58 30.6863 55.3137 28 52 28H9ZM28 3C23.0294 3 19 7.02944 19 12V25H41V12C41 7.02944 36.9706 3 32 3H28Z" fill="black"/>
<path d="M11 51C11 48.7909 12.7909 47 15 47C17.2091 47 19 48.7909 19 51C19 53.2091 17.2091 55 15 55C12.7909 55 11 53.2091 11 51Z" fill="black"/>
<path d="M27 51C27 48.7909 28.7909 47 31 47C33.2091 47 35 48.7909 35 51C35 53.2091 33.2091 55 31 55C28.7909 55 27 53.2091 27 51Z" fill="black"/>
<path d="M41 51C41 48.7909 42.7909 47 45 47C47.2091 47 49 48.7909 49 51C49 53.2091 47.2091 55 45 55C42.7909 55 41 53.2091 41 51Z" fill="black"/>
</svg>
