<svg width="800" height="800" viewBox="0 0 800 800" fill="none" xmlns="http://www.w3.org/2000/svg">
<path d="M400 0C179.1 0 0 179.075 0 400C0 620.925 179.075 800 400 800C620.925 800 800.025 620.925 800.025 400C800.025 179.075 620.95 0 400 0ZM400 750.8C207 750.8 50 593 50 400C50 207 207 50 400 50C593 50 750.025 207 750.025 400C750.025 593 593 750.8 400 750.8ZM363.25 625.375H426.15V561.9H363.25V625.375ZM399.25 174.625C362.625 174.625 332.45 184.5 308.75 204.225C285.05 223.95 273.525 263.475 274.1 296.225L275.025 298.05H332.4C332.4 278.525 338.925 250.45 351.925 240.35C364.925 230.25 380.725 225.25 399.25 225.25C420.6 225.25 437.025 231.05 448.525 242.65C460.025 254.25 465.75 270.825 465.75 292.375C465.75 310.5 461.5 325.95 452.95 338.75C444.375 351.55 430.05 369.875 409.925 393.7C389.15 412.425 376.325 427.475 371.475 438.85C366.625 450.225 364.05 470.7 363.85 500.2H423.975C423.975 481.7 425.15 468.075 427.475 459.3C429.8 450.525 436.475 440.7 447.45 429.7C471.075 406.925 490.025 384.65 504.375 362.85C518.7 341.1 525.875 317.075 525.875 290.825C525.875 254.2 514.8 225.65 492.6 205.225C470.4 184.8 439.25 174.575 399.2 174.575L399.25 174.625Z" fill="white"/>
</svg>
