<svg width="82" height="81" viewBox="0 0 82 81" fill="none" xmlns="http://www.w3.org/2000/svg">
<path d="M40.5 0C45.4057 0 53.0693 1.09322 60.3252 4.37793C67.599 7.6708 74.6446 13.2574 77.8838 22.3271C84.1179 39.7826 79.4402 53.5283 77.6309 58.2197L77.6113 58.2695L77.5889 58.3193C75.2409 63.5497 69.8996 68.9362 63.6963 72.9873C57.4792 77.0473 50.0397 79.9999 43.2646 80C31.7699 80 24.3266 77.3892 21.7139 76.1133L4.04395 80.0898C1.84913 80.5834 -0.088201 78.575 0.484375 76.3994L4.86426 59.7559C1.36271 53.0769 -3.08256 37.3118 4.17676 21.1797C8.03303 12.6102 14.9756 7.31343 21.9414 4.17676C28.888 1.04881 35.9969 4.16452e-06 40.5 0ZM40.5 4C36.5032 4 29.9622 4.95127 23.584 7.82324C17.2252 10.6865 11.1679 15.3901 7.82422 22.8203C1.09367 37.7771 5.44148 52.4723 8.55957 58.1904L8.68457 58.4482C8.90932 58.9719 8.98343 59.55 8.89062 60.1201L8.83008 60.4043L4.77051 75.8262L21.1602 72.1387L21.4502 72.0889C22.0258 72.0172 22.5761 72.1171 23.0498 72.3184L23.2803 72.4268L23.6602 72.6133C25.8611 73.6379 32.6133 76 43.2646 76C48.9894 75.9999 55.6672 73.4525 61.5088 69.6377C67.3462 65.8256 71.9934 60.9798 73.9209 56.7197C75.5992 52.3542 79.8554 39.7427 74.1162 23.6729C71.3555 15.9427 65.3175 11.0296 58.6748 8.02246C52.0141 5.00723 44.9276 4 40.5 4ZM26.3291 33.2588C27.4267 31.0824 30.5733 31.0824 31.6709 33.2588L31.7744 33.4844L38.0557 48.7383L41.3496 56.7383L41.418 56.9316C41.7071 57.9031 41.2191 58.9553 40.2617 59.3496C39.3041 59.7439 38.2169 59.34 37.7383 58.4463L37.6504 58.2617L34.8662 51.5H23.1338L20.3496 58.2617C19.929 59.283 18.7596 59.7702 17.7383 59.3496C16.717 58.929 16.2298 57.7596 16.6504 56.7383L19.9443 48.7383L26.2256 33.4844L26.3291 33.2588ZM56.5 19C57.6046 19 58.5 19.8954 58.5 21V29H63C64.1046 29 65 29.8954 65 31C65 32.1046 64.1046 33 63 33H58.5V46C58.5 47.1046 57.6046 48 56.5 48C55.3954 48 54.5 47.1046 54.5 46V21C54.5 19.8954 55.3954 19 56.5 19ZM24.7803 47.5H33.2197L29 37.252L24.7803 47.5ZM45 19C46.6001 19 47.9401 20.2677 47.9883 21.8887V22.0469C47.8914 26.4306 47.1857 29.5137 46.2256 31.6172C45.31 33.623 43.9971 35.0624 42.4854 35.4404C41.4138 35.7083 40.3276 35.0568 40.0596 33.9854C39.7917 32.9138 40.4432 31.8276 41.5146 31.5596C41.2871 31.6165 41.8757 31.5142 42.5869 29.9561C43.1945 28.625 43.7834 26.4276 43.9512 23H34C32.8954 23 32 22.1046 32 21C32 19.8954 32.8954 19 34 19H45Z" fill="black"/>
</svg>
