<svg width="77" height="80" viewBox="0 0 77 80" fill="none" xmlns="http://www.w3.org/2000/svg">
<path d="M60.2041 0.0107422C61.2128 0.113006 62 0.96435 62 2V8.50391C65.6363 8.54378 68.4618 9.02332 70.6143 10.0098C72.9551 11.0827 74.4165 12.7173 75.2324 14.7568C76.0061 16.691 76.1562 18.8878 76.1562 21.0469C76.1563 22.1422 76.1159 23.2926 76.0771 24.4443C76.038 25.6082 76 26.7879 76 28V28.3848L75.8574 28.7432C74.8585 31.2403 72.512 33.2206 69.9111 34.7793C67.2462 36.3764 63.9861 37.7229 60.6934 38.8174C54.5361 40.8639 47.9552 42.1277 44.3066 42.4453L43.6172 42.4961C39.5554 42.7351 37.8539 43.6637 36.9531 44.9561C35.9571 46.3852 35.5332 48.7652 35.5029 53H39L39.2041 53.0107C40.2128 53.113 41 53.9643 41 55V78L40.9893 78.2041C40.8938 79.1457 40.1457 79.8938 39.2041 79.9893L39 80H29L28.7959 79.9893C27.8543 79.8938 27.1062 79.1457 27.0107 78.2041L27 78V55C27 53.9643 27.7872 53.113 28.7959 53.0107L29 53H31.502C31.5276 48.769 31.9009 45.21 33.6719 42.6689C35.6461 39.8364 38.9447 38.765 43.3828 38.5039L43.9951 38.458C47.2602 38.1703 53.5187 36.9868 59.4316 35.0215C62.5764 33.9762 65.5351 32.7377 67.8545 31.3477C70.0468 30.0338 71.4084 28.7351 72.0029 27.5605C72.0106 26.4295 72.0446 25.3373 72.0791 24.3096C72.1185 23.1372 72.1563 22.0609 72.1562 21.0469C72.1562 18.9875 71.9947 17.4339 71.5186 16.2432C71.0844 15.1579 70.3571 14.2923 68.9482 13.6465C67.5186 12.9912 65.3373 12.5434 62 12.5029V22L61.9893 22.2041C61.8938 23.1457 61.1457 23.8938 60.2041 23.9893L60 24H2L1.7959 23.9893C0.854347 23.8938 0.1062 23.1457 0.0107422 22.2041L0 22V2C0 0.964349 0.787223 0.113005 1.7959 0.0107422L2 0H60L60.2041 0.0107422ZM31 76H37V57H31V76ZM4 20H58V4H4V20Z" fill="black"/>
</svg>
