<svg width="175" height="175" viewBox="0 0 175 175" fill="none" xmlns="http://www.w3.org/2000/svg">
<path fill-rule="evenodd" clip-rule="evenodd" d="M87.5 0C39.1751 0 0 39.1751 0 87.5C0 135.825 39.1751 175 87.5 175C135.825 175 175 135.825 175 87.5C175 39.1751 135.825 0 87.5 0ZM124.051 58.4299C124.84 57.2973 124.562 55.739 123.43 54.9493C122.297 54.1596 120.739 54.4375 119.949 55.5701L83.5794 107.732L57.1849 83.6531C56.1649 82.7225 54.5836 82.7951 53.6531 83.8151C52.7225 84.8351 52.7951 86.4164 53.8151 87.3469L82.3151 113.347L84.4206 115.268L86.0507 112.93L124.051 58.4299Z" fill="white"/>
</svg>
